<?xml version="1.0" encoding="utf-8"?>
<svg version="1.1" xmlns:xlink="http://www.w3.org/1999/xlink" width="12px" height="12px" viewBox="264 259  12 12" xmlns="http://www.w3.org/2000/svg">
  <path d="M 270 259  C 273.36 259  276 261.64  276 265  C 276 268.36  273.36 271  270 271  C 266.64 271  264 268.36  264 265  C 264 261.64  266.64 259  270 259  Z " fill-rule="nonzero" fill="#ffffff" stroke="none" />
  <path d="M 270 259.5  C 273.08 259.5  275.5 261.92  275.5 265  C 275.5 268.08  273.08 270.5  270 270.5  C 266.92 270.5  264.5 268.08  264.5 265  C 264.5 261.92  266.92 259.5  270 259.5  Z " stroke-width="1" stroke="#797979" fill="none" />
  <path d="M 270 268  C 268.32 268  267 266.68  267 265  C 267 263.32  268.32 262  270 262  C 271.68 262  273 263.32  273 265  C 273 266.68  271.68 268  270 268  " fill-rule="nonzero" fill="#797979" stroke="none" />
</svg>